# xmcd
#
# Track frame offsets:
#	150
#	22398
#	38421
#	64569
#	91167
#	123015
#	140763
#	160386
#	187284
#	218832
#
# Disc length: 3505 seconds
#
# Revision: 1
# Processed by: cddbd v1.5.2PL0 Copyright (c) Steve Scherf et al.
# Submitted via: audiograbber 1.83.01
#
DISCID=8c0daf0a
DTITLE=George Benson - Absolute Benson
DYEAR=2000
DGENRE=Jazz
TTITLE0=The Ghetto
TTITLE1=El Barrio
TTITLE2=Jazzenco
TTITLE3=Deeper Than You Think
TTITLE4=One On One
TTITLE5=Hipping The Hop
TTITLE6=Lately
TTITLE7=Come Back Baby
TTITLE8=Medicine Man
TTITLE9=El Barrio (Maw Mix)
EXTD=
EXTT0=
EXTT1=
EXTT2=
EXTT3=
EXTT4=
EXTT5=
EXTT6=
EXTT7=
EXTT8=
EXTT9=
PLAYORDER=
